<svg width="420" height="401" viewBox="0 0 420 401" fill="none" xmlns="http://www.w3.org/2000/svg">
<path d="M290.287 378.866C293.302 380.947 281.004 398.233 274.951 400.112C271.022 401.332 269.23 398.377 266.686 397.658C260.756 395.981 254.362 394.953 247.713 394.239C243.664 393.805 253.672 378.036 261.104 373.572C265.849 370.722 268.53 373.16 271.053 373.585C277.85 374.729 285.265 375.4 290.287 378.866ZM249.316 393.751C243.604 396.373 248.517 385.07 257.144 376.756C271.3 363.112 288.795 356.605 295.783 355.324C300.583 354.444 292.518 368.604 284.428 374.866C278.47 379.477 274.135 378.487 269.438 380.629C263.538 383.322 254.993 391.145 249.316 393.751ZM296.423 355.267C300.582 355.906 288.846 373.272 282.048 376.38C274.527 379.819 264.533 375.032 259.106 374.427C244.355 372.782 228.619 372.691 211.925 373.727C207.087 374.028 218.045 356.953 225.434 352.882C233.35 348.521 248.809 350.913 254.573 351.176C269.021 351.836 283.013 353.207 296.423 355.267ZM213.192 373.312C206.833 376.224 214.194 361.878 222.965 354.62C229.676 349.068 235.962 347.662 241.32 344.818C257.773 336.083 273.651 327.279 285.844 325.31C290.805 324.509 281.524 340.021 273.589 345.48C266.155 350.595 260.993 349.036 254.828 351.696C241.982 357.239 226.352 367.286 213.192 373.312ZM286.617 325.302C290.528 326.588 277.096 345.305 271.216 346.676C266.672 347.736 264.227 345.043 261.03 344.225C253.158 342.212 245.176 340.344 237.062 338.651C216.857 334.434 194.885 332.621 174.069 329.232C169.936 328.559 181.681 311.197 188.465 308.114C194.859 305.207 198.487 308.678 202.576 309.153C212.468 310.303 222.223 311.637 231.787 313.226C250.703 316.37 269.559 319.695 286.617 325.302ZM175.237 329.012C169.426 331.067 177.616 316.175 186.077 309.63C193.563 303.84 204.661 301.229 211.234 298.021C231.404 288.176 253.891 274.997 271.39 269.441C277.024 267.652 268.61 282.677 260.245 289.006C252.789 294.647 241.977 296.9 235.345 300.114C215.307 309.824 193.193 322.662 175.237 329.012ZM272.265 269.261C276.796 269.402 265.356 286.706 258.288 290.265C250.105 294.385 245.054 290.638 239.835 290.341C226.255 289.568 213.512 287.658 200.799 285.714C177.826 282.202 153.978 279.936 129.664 278.238C125.027 277.915 137.897 259.241 144.393 256.94C151.157 254.543 155.374 257.179 160.256 257.504C171.623 258.261 182.708 259.4 193.559 260.856C219.329 264.314 244.578 268.397 272.265 269.261ZM130.782 277.994C124.254 280.421 134.788 262.716 142.972 257.652C155.859 249.679 178.393 244.742 189.258 241.342C216.542 232.805 242.886 225.665 271.247 215.494C277.695 213.182 267.156 230.858 258.992 235.869C253.352 239.332 248.848 239.841 244.423 241.334C232.05 245.507 220.099 249.042 208.132 252.605C182.971 260.095 157.565 268.038 130.782 277.994ZM272.289 215.261C276.862 215.637 264.302 234.076 257.671 236.537C248.175 240.061 234.758 234.989 227.79 234.217C202.145 231.379 176.793 228.146 151.452 224.896C124.265 221.409 96.6515 218.477 70.032 214.228C65.6663 213.531 78.862 194.761 85.0743 192.88C93.9734 190.186 99.1904 194.528 105.606 195.376C118.976 197.144 132.355 198.902 145.745 200.644C187.512 206.076 229.131 211.712 272.289 215.261ZM71.0051 214.095C65.4063 215.798 74.1817 200.484 82.4025 194.384C90.543 188.343 102.494 187.524 108.346 185.954C132.874 179.372 155.981 174.896 178.283 171.551C216.861 165.765 254.329 161.875 287.793 163.261C292.297 163.447 280.754 180.812 273.745 184.286C266.071 188.091 255.998 184.818 250.154 184.996C232.865 185.525 215.065 186.762 196.773 188.695C157.836 192.811 116.657 200.21 71.0051 214.095ZM288.09 163.295C292.129 164.424 278.687 183.204 272.754 184.667C263.868 186.859 254.561 180.502 247.8 178.905C225.413 173.615 202.843 168.568 180.044 163.825C141.619 155.831 101.76 149.758 62.9942 142.222C58.7283 141.393 71.9975 122.62 78.1269 120.865C87.4924 118.182 95.9601 123.603 102.967 124.803C125.821 128.719 148.496 132.875 170.97 137.298C210.639 145.106 250.462 152.782 288.09 163.295ZM63.3782 142.232C58.2473 142.584 70.7176 123.974 77.607 121.051C87.2444 116.963 100.25 118.836 108.427 118.115C137.05 115.592 165.602 113.17 193.625 111.489C245.782 108.359 298.223 105.47 340.759 115.504C344.91 116.483 331.576 135.245 325.533 136.869C321.61 137.923 319.408 135.914 316.569 135.442C309.96 134.343 303.171 133.483 296.246 132.809C269.276 130.184 240.333 130.238 210.644 131.35C162.859 133.14 112.28 138.874 63.3782 142.232ZM340.987 115.578C344.718 117.43 329.555 137.444 324.784 136.951C319.507 136.405 316.145 132.971 311.908 131.047C303.974 127.447 295.954 123.957 287.832 120.601C257.777 108.181 226.261 97.6526 192.631 89.9147C132.778 76.1432 65.2717 72.7073 1.40471 64.3326C-3.26803 63.7199 11.1946 43.6458 16.874 42.8805C23.166 42.0327 27.6793 44.0302 32.9526 44.6008C43.6514 45.7585 54.3817 46.8735 65.1169 47.9819C105.517 52.1533 146.07 56.132 184.193 63.3686C241.409 74.2295 293.493 92.0009 340.987 115.578ZM2.15449 64.2554C-4.09624 65.8637 8.86527 46.0804 16.0037 43.1326C25.3271 39.2826 32.9013 38.6318 41.0934 36.5106C56.8669 32.4263 72.5125 28.5345 87.8678 25.0653C145.981 11.9362 199.836 4.91251 250.613 2.25699C308.645 -0.778001 364.158 -0.283194 418.455 1.8427C423.439 2.03782 409.157 22.1505 403.227 23.2813C387.373 26.3042 375.709 22.4705 362.183 22.1926C328.375 21.4982 294.129 21.4026 258.905 22.6641C179.761 25.4987 96.0473 40.0969 2.15449 64.2554Z" fill="url(#paint0_linear_1_24)"/>
<path d="M417.582 7.10468C422.444 5.72486 413.52 18.3598 406.102 22.9774C399.793 26.9049 395.165 27.0731 390.609 28.6706C379.687 32.5006 368.764 36.3305 357.842 40.1605C322.187 52.6628 283.642 68.398 250.437 77.8221C245.318 79.2749 255.401 65.5034 262.526 61.5911C268.319 58.4106 272.615 57.937 277.205 56.3276C288.196 52.4738 299.186 48.62 310.177 44.7663C345.833 32.2634 384.374 16.5292 417.582 7.10468ZM264.463 60.9417C267.582 61.612 256.818 75.0512 250.809 77.6748C243.099 81.0406 234.751 77.0848 229.916 76.7908C212.398 75.7255 194.88 74.6602 177.361 73.5949C143.877 71.5587 110.393 69.5224 76.9085 67.4862C60.5278 66.4901 42.0648 67.6035 27.5554 64.485C24.4368 63.8148 35.2 50.3756 41.2095 47.752C48.9677 44.3649 57.1713 48.3362 62.1023 48.636C79.6205 49.7013 97.1387 50.7666 114.657 51.8319C148.141 53.8681 181.626 55.9043 215.11 57.9405C231.49 58.9366 249.954 57.8234 264.463 60.9417Z" fill="white"/>
<defs>
<linearGradient id="paint0_linear_1_24" x1="405.5" y1="7.5" x2="227" y2="550.5" gradientUnits="userSpaceOnUse">
<stop stop-color="white"/>
<stop offset="1" stop-color="#6750A4"/>
</linearGradient>
</defs>
</svg>
