<svg width="1826" height="731" viewBox="0 0 1826 731" fill="none" xmlns="http://www.w3.org/2000/svg">
<path d="M1314 601L1225 730.5L1246 540L764.5 582L0 567.5L169 53L1014.5 0L1825.5 18.5L1513.5 526.5L1314 601Z" fill="#6750A4"/>
<path d="M516.287 468.866C519.302 470.947 507.004 488.233 500.951 490.112C497.022 491.332 495.23 488.377 492.686 487.658C486.756 485.981 480.362 484.953 473.713 484.239C469.664 483.805 479.672 468.036 487.104 463.572C491.849 460.722 494.53 463.16 497.053 463.585C503.85 464.729 511.265 465.4 516.287 468.866ZM475.316 483.751C469.604 486.373 474.517 475.07 483.144 466.756C497.3 453.112 514.795 446.605 521.783 445.324C526.583 444.444 518.518 458.604 510.428 464.866C504.47 469.477 500.135 468.487 495.438 470.629C489.538 473.322 480.993 481.145 475.316 483.751ZM522.423 445.267C526.582 445.906 514.846 463.272 508.048 466.38C500.527 469.819 490.533 465.032 485.106 464.427C470.355 462.782 454.619 462.691 437.925 463.727C433.087 464.028 444.045 446.953 451.434 442.882C459.35 438.521 474.809 440.913 480.573 441.176C495.021 441.836 509.013 443.207 522.423 445.267ZM439.192 463.312C432.833 466.224 440.194 451.878 448.965 444.62C455.676 439.068 461.962 437.662 467.32 434.818C483.773 426.083 499.651 417.279 511.844 415.31C516.805 414.509 507.524 430.021 499.589 435.48C492.155 440.595 486.993 439.036 480.828 441.696C467.982 447.239 452.352 457.286 439.192 463.312ZM512.617 415.302C516.528 416.588 503.096 435.305 497.216 436.676C492.672 437.736 490.227 435.043 487.03 434.225C479.158 432.212 471.176 430.344 463.062 428.651C442.857 424.434 420.885 422.621 400.069 419.232C395.936 418.559 407.681 401.197 414.465 398.114C420.859 395.207 424.487 398.678 428.576 399.153C438.468 400.303 448.223 401.637 457.787 403.226C476.703 406.37 495.559 409.695 512.617 415.302ZM401.237 419.012C395.426 421.067 403.616 406.175 412.077 399.63C419.563 393.84 430.661 391.229 437.234 388.021C457.404 378.176 479.891 364.997 497.39 359.441C503.024 357.652 494.61 372.677 486.245 379.006C478.789 384.647 467.977 386.9 461.345 390.114C441.307 399.824 419.193 412.662 401.237 419.012ZM498.265 359.261C502.796 359.402 491.356 376.706 484.288 380.265C476.105 384.385 471.054 380.638 465.835 380.341C452.255 379.568 439.512 377.658 426.799 375.714C403.826 372.202 379.978 369.936 355.664 368.238C351.027 367.915 363.897 349.241 370.393 346.94C377.157 344.543 381.374 347.179 386.256 347.504C397.623 348.261 408.708 349.4 419.559 350.856C445.329 354.314 470.578 358.397 498.265 359.261ZM356.782 367.994C350.254 370.421 360.788 352.716 368.972 347.652C381.859 339.679 404.393 334.742 415.258 331.342C442.542 322.805 468.886 315.665 497.247 305.494C503.695 303.182 493.156 320.858 484.992 325.869C479.352 329.332 474.848 329.841 470.423 331.334C458.05 335.507 446.099 339.042 434.132 342.605C408.971 350.095 383.565 358.038 356.782 367.994ZM498.289 305.261C502.862 305.637 490.302 324.076 483.671 326.537C474.175 330.061 460.758 324.989 453.79 324.217C428.145 321.379 402.793 318.146 377.452 314.896C350.265 311.409 322.652 308.477 296.032 304.228C291.666 303.531 304.862 284.761 311.074 282.88C319.973 280.186 325.19 284.528 331.606 285.376C344.976 287.144 358.355 288.902 371.745 290.644C413.512 296.076 455.131 301.712 498.289 305.261ZM297.005 304.095C291.406 305.798 300.182 290.484 308.402 284.384C316.543 278.343 328.494 277.524 334.346 275.954C358.874 269.372 381.981 264.896 404.283 261.551C442.861 255.765 480.329 251.875 513.793 253.261C518.297 253.447 506.754 270.812 499.745 274.286C492.071 278.091 481.998 274.818 476.154 274.996C458.865 275.525 441.065 276.762 422.773 278.695C383.836 282.811 342.657 290.21 297.005 304.095ZM514.09 253.295C518.129 254.424 504.687 273.204 498.754 274.667C489.868 276.859 480.561 270.502 473.8 268.905C451.413 263.615 428.843 258.568 406.044 253.825C367.619 245.831 327.76 239.758 288.994 232.222C284.728 231.393 297.998 212.62 304.127 210.865C313.492 208.182 321.96 213.603 328.967 214.803C351.821 218.719 374.496 222.875 396.97 227.298C436.639 235.106 476.462 242.782 514.09 253.295ZM289.378 232.232C284.247 232.584 296.718 213.974 303.607 211.051C313.244 206.963 326.25 208.836 334.427 208.115C363.05 205.592 391.602 203.17 419.625 201.489C471.782 198.359 524.223 195.47 566.759 205.504C570.91 206.483 557.576 225.245 551.533 226.869C547.61 227.923 545.408 225.914 542.569 225.442C535.96 224.343 529.171 223.483 522.246 222.809C495.276 220.184 466.333 220.238 436.644 221.35C388.859 223.14 338.28 228.874 289.378 232.232ZM566.987 205.578C570.718 207.43 555.555 227.444 550.784 226.951C545.507 226.405 542.145 222.971 537.908 221.047C529.974 217.447 521.954 213.957 513.832 210.601C483.777 198.181 452.261 187.653 418.631 179.915C358.778 166.143 291.272 162.707 227.405 154.333C222.732 153.72 237.195 133.646 242.874 132.881C249.166 132.033 253.679 134.03 258.953 134.601C269.651 135.759 280.382 136.873 291.117 137.982C331.517 142.153 372.07 146.132 410.193 153.369C467.409 164.229 519.493 182.001 566.987 205.578ZM228.154 154.255C221.904 155.864 234.865 136.08 242.004 133.133C251.327 129.283 258.901 128.632 267.093 126.511C282.867 122.426 298.513 118.534 313.868 115.065C371.981 101.936 425.836 94.9125 476.613 92.257C534.645 89.222 590.158 89.7168 644.455 91.8427C649.439 92.0378 635.157 112.151 629.227 113.281C613.373 116.304 601.709 112.47 588.183 112.193C554.375 111.498 520.129 111.403 484.905 112.664C405.761 115.499 322.047 130.097 228.154 154.255Z" fill="url(#paint0_linear_1_28)"/>
<path d="M643.582 97.1047C648.444 95.7249 639.52 108.36 632.102 112.977C625.793 116.905 621.165 117.073 616.609 118.671C605.687 122.501 594.764 126.331 583.842 130.161C548.187 142.663 509.642 158.398 476.437 167.822C471.318 169.275 481.401 155.503 488.526 151.591C494.319 148.411 498.615 147.937 503.205 146.328C514.196 142.474 525.186 138.62 536.177 134.766C571.833 122.263 610.374 106.529 643.582 97.1047ZM490.463 150.942C493.582 151.612 482.818 165.051 476.809 167.675C469.099 171.041 460.751 167.085 455.916 166.791C438.398 165.725 420.88 164.66 403.361 163.595C369.877 161.559 336.393 159.522 302.908 157.486C286.528 156.49 268.065 157.604 253.555 154.485C250.437 153.815 261.2 140.376 267.209 137.752C274.968 134.365 283.171 138.336 288.102 138.636C305.621 139.701 323.139 140.767 340.657 141.832C374.141 143.868 407.626 145.904 441.11 147.941C457.49 148.937 475.954 147.823 490.463 150.942Z" fill="white"/>
<path d="M574.968 363.92C574.968 358.373 575.949 352.955 577.912 347.664C579.96 342.288 582.904 337.424 586.744 333.072C590.584 328.635 595.277 325.136 600.824 322.576C606.371 319.931 612.685 318.608 619.768 318.608C628.131 318.608 635.341 320.443 641.4 324.112C647.544 327.781 652.109 332.56 655.096 338.448L641.528 347.792C639.992 344.379 637.987 341.691 635.512 339.728C633.037 337.68 630.392 336.272 627.576 335.504C624.76 334.651 621.987 334.224 619.256 334.224C614.819 334.224 610.936 335.12 607.608 336.912C604.365 338.704 601.635 341.051 599.416 343.952C597.197 346.853 595.533 350.096 594.424 353.68C593.4 357.264 592.888 360.848 592.888 364.432C592.888 368.443 593.528 372.325 594.808 376.08C596.088 379.749 597.88 383.035 600.184 385.936C602.573 388.752 605.389 391.013 608.632 392.72C611.96 394.341 615.587 395.152 619.512 395.152C622.328 395.152 625.187 394.683 628.088 393.744C630.989 392.805 633.677 391.312 636.152 389.264C638.627 387.216 640.547 384.571 641.912 381.328L656.376 389.648C654.584 394.171 651.64 398.011 647.544 401.168C643.533 404.325 639.011 406.715 633.976 408.336C628.941 409.957 623.949 410.768 619 410.768C612.515 410.768 606.584 409.445 601.208 406.8C595.832 404.069 591.181 400.485 587.256 396.048C583.416 391.525 580.387 386.491 578.168 380.944C576.035 375.312 574.968 369.637 574.968 363.92ZM728.894 410H711.742V372.368C711.742 367.163 710.718 363.28 708.67 360.72C706.707 358.16 703.977 356.88 700.478 356.88C698.43 356.88 696.254 357.477 693.95 358.672C691.646 359.867 689.555 361.531 687.678 363.664C685.886 365.712 684.563 368.101 683.71 370.832V410H666.558V316.56H683.71V355.344C686.185 351.077 689.555 347.749 693.822 345.36C698.089 342.971 702.739 341.776 707.774 341.776C712.126 341.776 715.667 342.544 718.398 344.08C721.129 345.531 723.262 347.536 724.798 350.096C726.334 352.571 727.401 355.387 727.998 358.544C728.595 361.616 728.894 364.816 728.894 368.144V410ZM739.2 390.16C739.2 385.808 740.395 382.011 742.784 378.768C745.259 375.44 748.672 372.88 753.024 371.088C757.376 369.296 762.368 368.4 768 368.4C770.816 368.4 773.675 368.613 776.576 369.04C779.477 369.467 781.995 370.149 784.128 371.088V367.504C784.128 363.237 782.848 359.952 780.288 357.648C777.813 355.344 774.101 354.192 769.152 354.192C765.483 354.192 761.984 354.832 758.656 356.112C755.328 357.392 751.829 359.269 748.16 361.744L742.656 350.48C747.093 347.579 751.616 345.403 756.224 343.952C760.917 342.501 765.824 341.776 770.944 341.776C780.501 341.776 787.925 344.165 793.216 348.944C798.592 353.723 801.28 360.549 801.28 369.424V390.8C801.28 392.592 801.579 393.872 802.176 394.64C802.859 395.408 803.925 395.877 805.376 396.048V410C803.84 410.256 802.432 410.469 801.152 410.64C799.957 410.811 798.933 410.896 798.08 410.896C794.667 410.896 792.064 410.128 790.272 408.592C788.565 407.056 787.499 405.179 787.072 402.96L786.688 399.504C783.787 403.259 780.16 406.16 775.808 408.208C771.456 410.256 767.019 411.28 762.496 411.28C758.059 411.28 754.048 410.384 750.464 408.592C746.965 406.715 744.192 404.197 742.144 401.04C740.181 397.797 739.2 394.171 739.2 390.16ZM780.928 393.616C781.867 392.592 782.635 391.568 783.232 390.544C783.829 389.52 784.128 388.581 784.128 387.728V380.944C782.08 380.091 779.861 379.451 777.472 379.024C775.083 378.512 772.821 378.256 770.688 378.256C766.251 378.256 762.581 379.237 759.68 381.2C756.864 383.077 755.456 385.595 755.456 388.752C755.456 390.459 755.925 392.08 756.864 393.616C757.803 395.152 759.168 396.389 760.96 397.328C762.752 398.267 764.885 398.736 767.36 398.736C769.92 398.736 772.437 398.267 774.912 397.328C777.387 396.304 779.392 395.067 780.928 393.616ZM856.875 406.544C855.424 407.141 853.675 407.824 851.627 408.592C849.579 409.36 847.36 409.957 844.971 410.384C842.667 410.896 840.32 411.152 837.931 411.152C834.774 411.152 831.872 410.597 829.227 409.488C826.582 408.379 824.448 406.629 822.827 404.24C821.291 401.765 820.523 398.565 820.523 394.64V356.112H811.691V342.928H820.523V321.168H837.675V342.928H851.755V356.112H837.675V388.88C837.76 391.184 838.4 392.848 839.595 393.872C840.79 394.896 842.283 395.408 844.075 395.408C845.867 395.408 847.616 395.109 849.323 394.512C851.03 393.915 852.395 393.403 853.419 392.976L856.875 406.544ZM972.334 410V350.352L949.038 394.768H939.182L915.886 350.352V410H898.222V319.12H917.166L944.046 370.832L971.182 319.12H989.998V410H972.334ZM1001.95 390.16C1001.95 385.808 1003.14 382.011 1005.53 378.768C1008.01 375.44 1011.42 372.88 1015.77 371.088C1020.13 369.296 1025.12 368.4 1030.75 368.4C1033.57 368.4 1036.42 368.613 1039.33 369.04C1042.23 369.467 1044.74 370.149 1046.88 371.088V367.504C1046.88 363.237 1045.6 359.952 1043.04 357.648C1040.56 355.344 1036.85 354.192 1031.9 354.192C1028.23 354.192 1024.73 354.832 1021.41 356.112C1018.08 357.392 1014.58 359.269 1010.91 361.744L1005.41 350.48C1009.84 347.579 1014.37 345.403 1018.97 343.952C1023.67 342.501 1028.57 341.776 1033.69 341.776C1043.25 341.776 1050.68 344.165 1055.97 348.944C1061.34 353.723 1064.03 360.549 1064.03 369.424V390.8C1064.03 392.592 1064.33 393.872 1064.93 394.64C1065.61 395.408 1066.68 395.877 1068.13 396.048V410C1066.59 410.256 1065.18 410.469 1063.9 410.64C1062.71 410.811 1061.68 410.896 1060.83 410.896C1057.42 410.896 1054.81 410.128 1053.02 408.592C1051.32 407.056 1050.25 405.179 1049.82 402.96L1049.44 399.504C1046.54 403.259 1042.91 406.16 1038.56 408.208C1034.21 410.256 1029.77 411.28 1025.25 411.28C1020.81 411.28 1016.8 410.384 1013.21 408.592C1009.72 406.715 1006.94 404.197 1004.89 401.04C1002.93 397.797 1001.95 394.171 1001.95 390.16ZM1043.68 393.616C1044.62 392.592 1045.38 391.568 1045.98 390.544C1046.58 389.52 1046.88 388.581 1046.88 387.728V380.944C1044.83 380.091 1042.61 379.451 1040.22 379.024C1037.83 378.512 1035.57 378.256 1033.44 378.256C1029 378.256 1025.33 379.237 1022.43 381.2C1019.61 383.077 1018.21 385.595 1018.21 388.752C1018.21 390.459 1018.68 392.08 1019.61 393.616C1020.55 395.152 1021.92 396.389 1023.71 397.328C1025.5 398.267 1027.64 398.736 1030.11 398.736C1032.67 398.736 1035.19 398.267 1037.66 397.328C1040.14 396.304 1042.14 395.067 1043.68 393.616ZM1078.97 423.056C1080.5 423.397 1081.91 423.696 1083.19 423.952C1084.56 424.208 1085.71 424.336 1086.65 424.336C1088.27 424.336 1089.59 423.909 1090.61 423.056C1091.72 422.288 1092.79 420.837 1093.81 418.704C1094.84 416.656 1095.9 413.755 1097.01 410L1070.52 342.928H1088.31L1106.36 392.464L1122.23 342.928H1138.61L1110.45 423.312C1109.43 426.299 1107.85 428.987 1105.72 431.376C1103.67 433.851 1101.07 435.771 1097.91 437.136C1094.84 438.587 1091.38 439.312 1087.54 439.312C1086.18 439.312 1084.81 439.184 1083.45 438.928C1082.08 438.757 1080.59 438.416 1078.97 437.904V423.056ZM1210.27 410H1193.12V372.368C1193.12 367.163 1192.09 363.28 1190.05 360.72C1188.08 358.16 1185.35 356.88 1181.85 356.88C1179.81 356.88 1177.63 357.477 1175.33 358.672C1173.02 359.867 1170.93 361.531 1169.05 363.664C1167.26 365.712 1165.94 368.101 1165.09 370.832V410H1147.93V316.56H1165.09V355.344C1167.56 351.077 1170.93 347.749 1175.2 345.36C1179.46 342.971 1184.11 341.776 1189.15 341.776C1193.5 341.776 1197.04 342.544 1199.77 344.08C1202.5 345.531 1204.64 347.536 1206.17 350.096C1207.71 352.571 1208.78 355.387 1209.37 358.544C1209.97 361.616 1210.27 364.816 1210.27 368.144V410ZM1256.29 411.28C1250.91 411.28 1246.05 410.384 1241.7 408.592C1237.34 406.715 1233.63 404.197 1230.56 401.04C1227.49 397.797 1225.1 394.128 1223.39 390.032C1221.77 385.851 1220.96 381.456 1220.96 376.848C1220.96 370.448 1222.37 364.603 1225.18 359.312C1228.08 354.021 1232.18 349.797 1237.47 346.64C1242.85 343.397 1249.16 341.776 1256.42 341.776C1263.75 341.776 1270.03 343.397 1275.23 346.64C1280.44 349.797 1284.4 354.021 1287.14 359.312C1289.95 364.517 1291.36 370.149 1291.36 376.208C1291.36 377.232 1291.32 378.299 1291.23 379.408C1291.15 380.432 1291.06 381.285 1290.98 381.968H1239.14C1239.48 385.381 1240.46 388.368 1242.08 390.928C1243.79 393.488 1245.92 395.451 1248.48 396.816C1251.12 398.096 1253.94 398.736 1256.93 398.736C1260.34 398.736 1263.54 397.925 1266.53 396.304C1269.6 394.597 1271.69 392.379 1272.8 389.648L1287.52 393.744C1285.9 397.157 1283.55 400.187 1280.48 402.832C1277.49 405.477 1273.95 407.568 1269.86 409.104C1265.76 410.555 1261.24 411.28 1256.29 411.28ZM1238.75 371.088H1273.82C1273.48 367.675 1272.5 364.731 1270.88 362.256C1269.34 359.696 1267.3 357.733 1264.74 356.368C1262.18 354.917 1259.32 354.192 1256.16 354.192C1253.09 354.192 1250.27 354.917 1247.71 356.368C1245.24 357.733 1243.19 359.696 1241.57 362.256C1240.03 364.731 1239.09 367.675 1238.75 371.088ZM1406 410H1388.85V372.368C1388.85 367.077 1387.91 363.195 1386.03 360.72C1384.24 358.16 1381.72 356.88 1378.48 356.88C1375.15 356.88 1371.95 358.203 1368.88 360.848C1365.89 363.408 1363.76 366.779 1362.48 370.96V410H1345.33V372.368C1345.33 366.992 1344.39 363.067 1342.51 360.592C1340.72 358.117 1338.2 356.88 1334.96 356.88C1331.63 356.88 1328.43 358.16 1325.36 360.72C1322.37 363.28 1320.24 366.651 1318.96 370.832V410H1301.81V342.928H1317.3V355.344C1319.86 350.992 1323.27 347.664 1327.54 345.36C1331.8 342.971 1336.71 341.776 1342.26 341.776C1347.8 341.776 1352.11 343.141 1355.18 345.872C1358.34 348.603 1360.35 351.973 1361.2 355.984C1363.93 351.376 1367.39 347.877 1371.57 345.488C1375.83 343.013 1380.61 341.776 1385.9 341.776C1390.09 341.776 1393.46 342.544 1396.02 344.08C1398.66 345.531 1400.71 347.536 1402.16 350.096C1403.61 352.571 1404.59 355.387 1405.1 358.544C1405.7 361.701 1406 364.901 1406 368.144V410Z" fill="white"/>
<defs>
<linearGradient id="paint0_linear_1_28" x1="631.5" y1="97.5" x2="453" y2="640.5" gradientUnits="userSpaceOnUse">
<stop stop-color="white"/>
<stop offset="1" stop-color="#6750A4"/>
</linearGradient>
</defs>
</svg>
